<?xml version="1.0" encoding="UTF-8"?>
<svg id="Layer_2" data-name="Layer 2" xmlns="http://www.w3.org/2000/svg" viewBox="0 0 2724.66 499.21">
  <defs>
    <style>
      .cls-1 {
        fill: #fff;
      }
    </style>
  </defs>
  <g id="Layer_2-2" data-name="Layer 2">
    <g>
      <path class="cls-1" d="M383.4,94.92c-5.28-30.44,23.54-27.32,42.45-27.32s27.52,5.2,27.52,15.6c0,0,20.58-36.4-7.71-54.07-10.28-6.42-32.89-3.14-32.89-3.14,0,0-5.72,16.18-25.9,15.6-30.69-.88-36.42-20.8-36.42-20.8l56.49.45c.52-8.44-1.24-16.02-8.92-18.96-1.88-.72-7.52-2.28-9.23-2.28h-142.42c.34,7.33,11.46,20.8,21.75,20.8h30.87c-13.01,16.67-21.14,35.15-26.3,56.23-9.47,38.67-2.9,76.71,16.23,110.61,6.49-8.54,15.08-16.71,25.14-19.83-3.27-6.58-7.68-12.59-10.63-19.57-13.52-32.02-11.76-79.45,14.64-103.64-13.2,32.14-14.44,68.48,3.07,99.08,2.49,4.35,9.12,14.62,13.87,17.51,0,0,8.18,1.96,10.8,2.45,27.43,5.19,46.99,26.76,50,56.22.31,3.04,1.32,9.73,1.32,9.73,0,0,5.37,10.64,7.08,13.97,9.56,18.54,8.69,37.76,7.62,58.79,47.49-35.37,57.2-108.54,19.18-154.38-11.4-13.74-44.83-36.92-47.63-53.06ZM425.31,259.16l-2.38-15.1s-6.08-28.49-14.75-46.82c-21.7-45.86-74.93-55.3-76.68-105.55-.42-11.98,3.47-26.67,10.04-36.46l-2.03,18.02c1.16,22.45,16.23,35.45,30.5,51.05,20.09,21.95,45.07,40.77,57.06,70.17,8.55,20.97-1.76,64.69-1.76,64.69Z"/>
      <ellipse class="cls-1" cx="336.62" cy="226.39" rx="40.4" ry="42.68"/>
      <path class="cls-1" d="M154.51,20.81c29.01,3.31,48.13,16,61.66,44.88,12.6,26.89,9.95,68.16,46.81,126.71l-41.16,41.6h-72.04c-21.76-1.58-38.48-8.9-46.31-30.16h118.35s-2.86-25.89-13.05-27.55c-5.25,1.67-110.29.06-110.29.06-18.76-1.77-27.71-13.66-31.02-32.48h138.93s-.57-17.91-10.72-23.88c-.14.19-127.74-.28-127.74-.28-18.72-1.73-33.07-13.21-36.4-32.11l151.29.35s-1.76-19.37-17.59-25.54c-9.9.97-116.46.03-118.01.08-16.91.5-28.45-10.17-37.13-21.05C4.72,34.72.03,29.66,0,20.8h154.51Z"/>
      <path class="cls-1" d="M93.18,499.21s-51.46,0-72.04-20.8C.56,457.61.56,416.01.56,416.01v-127.92c3.94-44.89,51.22-72.84,87.18-46.31,35.32,26.05,24.36,81.57-15.15,98.32v31.2l-10.29,26-10.29-26v-52c25.37,2.76,42.15-29.19,25.17-50.08-17.34-21.33-49.33-7.71-50.9,18.87v127.92c0,26,10.29,57.2,46.31,57.2h15.73c5.15,10.4,14.74,20.8,25.03,26h-20.18Z"/>
      <path class="cls-1" d="M305.29,499.21h-20.58c.28-7.31-7.87-12.34-13.79-15,1.15,2.89,2.54,5.22,3.04,8.46.33,2.15.41,4.24.3,6.41-37.87.06-75.17.09-113.05.13-19.86.02-30.6-2.3-44.51-19.11-60.26-72.79,40.15-195.44,112.93-141.8,47.38,34.92,16.08,98.43-29.99,114l-24.52,9.38,101.47,1.03c16.2,2.97,29.16,18.58,28.71,36.5Z"/>
      <path class="cls-1" d="M412.2,499.21s0-10.4-15.44-15.6c5.15,10.4,5.15,15.6,5.15,15.6h-44.59c-4.44-.94-9.83-8.03-10.25-12.4l-1.76-181.74-75.04,75.18c-.05-21.95-8.9-44.41-25.27-57.78-19.29-15.76-43.05-16.79-66.95-13.83l106.39-113c-31.54,65.83,50.34,127.16,96.61,70.95,5.41-6.57,10.56-16.98,10.34-16.99,5.36.01,5.36,46.81,5.36,57.21v156.01c25.73,5.2,30.87,26,30.87,36.4h-15.44Z"/>
      <path class="cls-1" d="M479.1,499.21c.82-6.21-9.82-15.57-15.44-15.6,3.34,3.63,5.36,10.79,5.15,15.6h-25.73c-1.93-18.06-10.29-36.4-30.87-41.6v-130l25.81-26.11s-.18,155.69,0,155.69c46.23.42,51.37,26.42,51.37,42.02h-10.29Z"/>
    </g>
  </g>
  <g id="Layer_4" data-name="Layer 4">
    <g>
      <path class="cls-1" d="M648.02,399.4c-11.11,0-21.18-2.71-30.21-8.12-9.03-5.42-16.25-12.64-21.67-21.67-5.42-9.02-8.12-19.1-8.12-30.21v-180c0-11.11,2.71-21.18,8.12-30.21,5.42-9.02,12.64-16.25,21.67-21.66,9.02-5.42,19.09-8.13,30.21-8.13h239.16v60.42h-225c-4.45,0-7.92,1.18-10.42,3.54-2.5,2.36-3.75,5.9-3.75,10.62v150.83c0,4.45,1.25,7.92,3.75,10.42,2.5,2.5,5.97,3.75,10.42,3.75h225v60.42h-239.16Z"/>
      <path class="cls-1" d="M930.93,399.4V99.4h60v119.59h186.25v-119.59h60v300h-60v-119.58h-186.25v119.58h-60Z"/>
      <path class="cls-1" d="M1276.76,399.4V99.4h59.58v300h-59.58Z"/>
      <path class="cls-1" d="M1374.26,399.4V99.4h63.75l105,125.42,104.58-125.42h64.17v300h-60.42v-210.42l-108.33,129.58-108.75-129.16v210h-60Z"/>
      <path class="cls-1" d="M1761.75,399.4V99.4h276.66v60.42h-215.83v59.17h173.75v60.83h-173.75v59.17h215.83v60.42h-276.66Z"/>
      <path class="cls-1" d="M2080.08,399.4V99.82h239.58c10.83,0,20.83,2.71,30,8.13,9.16,5.41,16.52,12.71,22.08,21.88,5.55,9.16,8.33,19.17,8.33,30v79.16c0,10.83-2.78,20.77-8.33,29.79-5.56,9.03-12.92,16.25-22.08,21.67-9.17,5.41-19.17,8.12-30,8.12l-179.59.42v100.42h-60ZM2142.58,238.15h174.17c.55,0,1.11-.21,1.66-.63.55-.42.84-.9.84-1.46v-73.75c0-.55-.28-1.11-.84-1.66-.56-.55-1.11-.83-1.66-.83h-174.17c-.56,0-1.11.28-1.66.83-.56.56-.84,1.11-.84,1.66v73.75c0,.56.28,1.04.84,1.46.55.42,1.11.63,1.66.63ZM2315.91,399.4l-88.75-105.83h78.75l73.33,87.08v18.75h-63.33Z"/>
      <path class="cls-1" d="M2424.66,159.4c0-10.83,2.71-20.83,8.13-30,5.41-9.16,12.71-16.46,21.88-21.87,9.16-5.42,19.17-8.13,30-8.13h179.58c10.83,0,20.83,2.71,30,8.13,9.16,5.41,16.52,12.71,22.08,21.87,5.55,9.17,8.33,19.17,8.33,30v240h-60.83v-98.75h-179.16v98.75h-60v-240ZM2663.83,240.65v-78.33c0-.55-.28-1.11-.83-1.66-.56-.55-1.11-.83-1.67-.83h-174.17c-.56,0-1.11.28-1.66.83-.56.56-.83,1.11-.83,1.66v78.33h179.16Z"/>
    </g>
  </g>
</svg>