<?xml version="1.0" encoding="UTF-8"?>
<svg id="Layer_2" data-name="Layer 2" xmlns="http://www.w3.org/2000/svg" viewBox="0 0 2703.71 501.09">
  <defs>
    <style>
      .cls-1 {
        fill: #fff;
      }
    </style>
  </defs>
  <g id="Layer_2-2" data-name="Layer 2">
    <g>
      <path class="cls-1" d="M448.46,82.41s32.89-64.6-35.63-59.88c-8.27,9.45-11,21.63-28.75,21.48-24.22.59-30.13-23.87-30.13-23.87l56.75.23s-.04-18.3-17.17-18.3h-85.62s-40.17,1.11-47.26-1.85c-7.09-2.95,10.63,23.92,23.63,23.92s25.4-2.36,30.13-1.48,0,14.77-17.43,14.47c-23.92,15.58-40.95,117.96,4.97,160.27,5.14-9.08,19.13-18.02,24.74-19.49-40.76-37.81-30.31-118.03-20.27-124.82,8.57-4.14,9.75,1.48,9.75,1.48,0,0-21.56,88.38,31.9,120.87,0,0,14.86.16,27.56,10.5,12.7,10.34,22.08,27.97,22.08,27.97,0,0,11.79-4.05,19.04,25.51,1.01,4.11,3.85-21.73-15.2-47.94-14.62-21.64-23.51-16.33-46.99-49.19-19.94-34.93-23.04-32.71-19.2-75.91,5.61-12.11,13.59-2.95,13.59.89s-8.57,50.21,32.79,86.25c41.35,36.03,55.23,79.45,48.44,126.71,0,0,24.51-30.13,23.63-60.25-.89-30.13-12.11-56.41-39.58-77.98-27.47-21.56-40.17-38.1-40.76-60.25-.59-22.15,6.79-30.42,36.03-31.6,29.24-1.18,36.26,14.62,38.95,32.27Z"/>
      <path class="cls-1" d="M344.39,189.87c-20.06,0-36.32,16.26-36.32,36.32s16.26,36.32,36.32,36.32,36.32-16.26,36.32-36.32-16.26-36.32-36.32-36.32ZM344.39,245.8c-10.84,0-19.62-8.79-19.62-19.62s8.79-19.62,19.62-19.62,19.62,8.79,19.62,19.62-8.79,19.62-19.62,19.62Z"/>
      <path class="cls-1" d="M386.77,81.52l41.65-2.66s1.77-15.73-20.82-13.96c-25.4,1.3-20.82,16.62-20.82,16.62Z"/>
      <path class="cls-1" d="M448.35,501.09s7.17-23.92-34.92-24.07c0,0,32.14,8.42,24.5,24.07-28.24-.15-61.94,1.21-71.69-6.79-14.56-11.95-16.39-31.56-13.29-38.2,3.1-6.65,4.43-4.77,7.53-13.63,3.1-8.86.89-19.49.89-19.49,0,0-4.43-2.66-12.41,10.63-7.97,13.29-22.15,18.16-27.47,16.39,0,0-1.87-11.52,3.27-17.72s13.28-12.73,19.62-20.1c6.34-7.37,11.95-15.34,13.8-19.33,1.85-3.99,0-17.28,0-17.28,0,0-9.67,5.32-15.87,16.39-6.2,11.08-23.04,17.72-31.01,15.95,0,0-2.66-10.97,2.66-21.61,8.64-9.85,23.3-19.03,27.43-23.9,4.13-4.87,13.77-11.65,11.12-31.58,0-6.65-20.92,21.27-27.74,26.14-6.82,4.87-13.91,10.63-24.54,8.42.08-7.94.44-14.09,5.32-19.89,4.87-5.8,18.16-18.65,23.48-24.86,0,0,25.7-22.6,12.85-38.54,0,0-46.82,65.78-68.9,84.01,0,0-2.62-68.59-68-63.42-51.41,4.07-86.47,59.45-88.82,98.8-2.85,47.62,23.92,73.38,49.94,77.22,19.29,2.85,38.8-3.23,46.33-7.66,7.53-4.43,9.53-8.19,36.66-8.19s21.67.15,40.27,0c29.41,1.03,40.74,27.43,35.41,38.25h-18.22c1.53-26.14-33.99-22.74-33.99-22.74,0,0,27.82,6.11,22.6,22.74h-120.3s-48.59.96-68.08-41.77c-18.53-40.64-11.25-77.84,6.85-110.17,38.55-68.85,163.42-159.29,163.42-159.29l17.13,27.04s-8.7,47.34,39.58,58.71c40.76,9.6,57.7-28.32,57.7-28.32v216.58s25.6-1.18,43.91,0c37.81,3.54,32.49,34.26,32.49,37.22"/>
      <ellipse class="cls-1" cx="194.61" cy="390.88" rx="80.63" ry="62.62" transform="translate(-241.21 363.98) rotate(-60)"/>
      <path class="cls-1" d="M121.29,499.29s-25.34-11.85-28.46-26.56c0,0-32.89,1.18-54.16-15.36-16.82-13.08-18.4-30.76-18.4-64.44s1-112.71,1-112.71c0,0-7.41-47.33,36.01-49.1,43.42-1.77,46.96,58.48,13.29,64.98l3.95,20.27s36.03-12.53,38.99-42.14c2.95-29.61-5.73-64.37-57.71-64.37S.16,258.75.19,273.5c-.03,31.34,0,121.85,0,121.85,0,0-4.3,63.06,27.85,82.93,31.43,19.42,93.25,21.02,93.25,21.02Z"/>
      <path class="cls-1" d="M64.26,318.37l-3.73-21.81h-13l-4.5,22.81s.36,32.26,10.11,50.57c0,0,11.11-11.41,11.11-51.57Z"/>
      <circle class="cls-1" cx="55.93" cy="266.17" r="15.89"/>
      <path class="cls-1" d="M206.17,232.13l31.35-27.76-101.38-1s6.5,28.76,34.26,28.76h35.76Z"/>
      <path class="cls-1" d="M250.75,189.87l15.95-14.86s-25.4-17.72-30.13-45.49,5.91-36.03-5.32-84.47C220.03-3.39,153.56,3.24,153.56,5.11c-.04,8.27,31.28-.5,55.05,57.17,11.48,27.86-.39,60.03,10.25,86.61,10.63,26.58,31.9,40.99,31.9,40.99Z"/>
      <path class="cls-1" d="M228.62,189.23s-18.5-10.68-23.95-33.72c-65.57.59-104.56,0-104.56,0,0,0-1.18,25.99,31.9,30.72,33.08,4.73,96.61,3,96.61,3Z"/>
      <path class="cls-1" d="M201.95,140.11s-7.33-15.63-5.33-31.27c-94.13.49-127.69,0-127.69,0,0,0,1.5,31.27,24.91,31.27h108.11Z"/>
      <path class="cls-1" d="M199.95,92.31s-1.18-25.18-6.5-29.54H34.55s5.24,29.54,31.57,29.54h133.84Z"/>
      <path class="cls-1" d="M182.82,48s-15.36-32.49-50.8-32.49H.88s4.14,32.49,33.67,32.49h148.27Z"/>
      <polygon class="cls-1" points="398.74 449.11 418.14 449.11 418.14 313.84 398.74 331.71 398.74 449.11"/>
      <path class="cls-1" d="M399.76,312.34v-76.16s3.06,11.27,12.7,16.62c10.63,5.9,5.61,43.76,5.61,43.76l-18.31,15.78Z"/>
    </g>
  </g>
  <g id="Layer_4" data-name="Layer 4">
    <g>
      <path class="cls-1" d="M627.07,400.55c-11.11,0-21.18-2.71-30.21-8.12-9.03-5.42-16.25-12.64-21.67-21.67-5.42-9.02-8.12-19.1-8.12-30.21v-180c0-11.11,2.71-21.18,8.12-30.21,5.42-9.02,12.64-16.25,21.67-21.66,9.02-5.42,19.09-8.13,30.21-8.13h239.16v60.42h-225c-4.45,0-7.92,1.18-10.42,3.54-2.5,2.36-3.75,5.9-3.75,10.62v150.83c0,4.45,1.25,7.92,3.75,10.42,2.5,2.5,5.97,3.75,10.42,3.75h225v60.42h-239.16Z"/>
      <path class="cls-1" d="M909.98,400.55V100.55h60v119.59h186.25v-119.59h60v300h-60v-119.58h-186.25v119.58h-60Z"/>
      <path class="cls-1" d="M1255.81,400.55V100.55h59.58v300h-59.58Z"/>
      <path class="cls-1" d="M1353.31,400.55V100.55h63.75l105,125.42,104.58-125.42h64.17v300h-60.42v-210.42l-108.33,129.58-108.75-129.16v210h-60Z"/>
      <path class="cls-1" d="M1740.8,400.55V100.55h276.66v60.42h-215.83v59.17h173.75v60.83h-173.75v59.17h215.83v60.42h-276.66Z"/>
      <path class="cls-1" d="M2059.13,400.55V100.96h239.58c10.83,0,20.83,2.71,30,8.13,9.16,5.41,16.52,12.71,22.08,21.88,5.55,9.16,8.33,19.17,8.33,30v79.16c0,10.83-2.78,20.77-8.33,29.79-5.56,9.03-12.92,16.25-22.08,21.67-9.17,5.41-19.17,8.12-30,8.12l-179.59.42v100.42h-60ZM2121.63,239.3h174.17c.55,0,1.11-.21,1.66-.63.55-.42.84-.9.84-1.46v-73.75c0-.55-.28-1.11-.84-1.66-.56-.55-1.11-.83-1.66-.83h-174.17c-.56,0-1.11.28-1.66.83-.56.56-.84,1.11-.84,1.66v73.75c0,.56.28,1.04.84,1.46.55.42,1.11.63,1.66.63ZM2294.96,400.55l-88.75-105.83h78.75l73.33,87.08v18.75h-63.33Z"/>
      <path class="cls-1" d="M2403.71,160.54c0-10.83,2.71-20.83,8.13-30,5.41-9.16,12.71-16.46,21.88-21.87,9.16-5.42,19.17-8.13,30-8.13h179.58c10.83,0,20.83,2.71,30,8.13,9.16,5.41,16.52,12.71,22.08,21.87,5.55,9.17,8.33,19.17,8.33,30v240h-60.83v-98.75h-179.16v98.75h-60v-240ZM2642.87,241.79v-78.33c0-.55-.28-1.11-.83-1.66-.56-.55-1.11-.83-1.67-.83h-174.17c-.56,0-1.11.28-1.66.83-.56.56-.83,1.11-.83,1.66v78.33h179.16Z"/>
    </g>
  </g>
</svg>