<?xml version="1.0" encoding="UTF-8"?>
<svg id="Layer_2" data-name="Layer 2" xmlns="http://www.w3.org/2000/svg" viewBox="0 0 466.72 568.38">
  <defs>
    <style>
      .cls-1 {
        fill: #fff;
      }
    </style>
  </defs>
  <g id="Layer_2-2" data-name="Layer 2">
    <g>
      <path class="cls-1" d="M365.87,90.31c-5.02-28.97,22.4-25.99,40.39-25.99s26.18,4.95,26.18,14.84c0,0,19.58-34.63-7.33-51.44-9.78-6.11-31.29-2.98-31.29-2.98,0,0-5.44,15.39-24.64,14.84-29.2-.84-34.65-19.79-34.65-19.79l53.75.42c.5-8.03-1.18-15.24-8.49-18.04-1.79-.68-7.16-2.17-8.78-2.17h-135.5c.33,6.98,10.91,19.79,20.7,19.79h29.37c-12.38,15.86-20.11,33.45-25.02,53.5-9.01,36.79-2.76,72.98,15.44,105.25,6.18-8.12,14.35-15.9,23.92-18.87-3.12-6.26-7.31-11.98-10.11-18.62-12.86-30.47-11.19-75.6,13.93-98.61-12.56,30.58-13.74,65.16,2.93,94.27,2.37,4.13,8.67,13.91,13.19,16.66,0,0,7.79,1.86,10.28,2.33,26.09,4.94,44.71,25.46,47.57,53.49.3,2.89,1.25,9.26,1.25,9.26,0,0,5.11,10.12,6.74,13.29,9.09,17.64,8.27,35.93,7.25,55.93,45.18-33.65,54.42-103.28,18.25-146.88-10.85-13.08-42.65-35.13-45.31-50.49ZM405.75,246.59l-2.27-14.37s-5.78-27.11-14.04-44.55c-20.65-43.64-71.3-52.62-72.95-100.42-.4-11.4,3.3-25.38,9.55-34.69l-1.93,17.15c1.11,21.36,15.44,33.73,29.02,48.57,19.12,20.89,42.88,38.79,54.29,66.77,8.13,19.95-1.68,61.55-1.68,61.55Z"/>
      <ellipse class="cls-1" cx="321.37" cy="215.4" rx="38.44" ry="40.61"/>
      <path class="cls-1" d="M148.09,19.8c27.6,3.15,45.79,15.22,58.67,42.7,11.99,25.59,9.46,64.86,44.54,120.56l-39.17,39.58h-68.54c-20.7-1.51-36.61-8.47-44.06-28.7h112.6s-2.72-24.63-12.42-26.21c-4.99,1.58-104.94.05-104.94.05-17.85-1.68-26.36-13-29.52-30.9h132.19s-.54-17.04-10.2-22.73c-.13.19-121.54-.27-121.54-.27-17.81-1.65-31.46-12.57-34.64-30.55l143.94.33s-1.67-18.43-16.73-24.3c-9.42.92-110.81.03-112.29.08-16.09.47-27.07-9.68-35.33-20.03C5.58,33.03,1.11,28.22,1.08,19.79h147.01Z"/>
      <path class="cls-1" d="M89.74,474.99s-48.96,0-68.54-19.79C1.62,435.4,1.62,395.82,1.62,395.82v-121.72c3.75-42.71,48.73-69.3,82.95-44.07,33.61,24.79,23.18,77.61-14.41,93.54v29.69l-9.79,24.74-9.79-24.74v-49.48c24.14,2.63,40.1-27.77,23.95-47.65-16.5-20.29-46.94-7.34-48.43,17.96v121.72c0,24.74,9.79,54.43,44.06,54.43h14.97c4.9,9.9,14.03,19.79,23.82,24.74h-19.2Z"/>
      <path class="cls-1" d="M291.56,474.99h-19.58c.27-6.95-7.49-11.74-13.12-14.27,1.1,2.75,2.42,4.97,2.9,8.05.32,2.05.39,4.04.29,6.1-36.03.05-71.53.09-107.56.12-18.9.02-29.11-2.19-42.35-18.18-57.34-69.26,38.2-185.95,107.45-134.92,45.08,33.22,15.3,93.65-28.54,108.47l-23.33,8.92,96.54.98c15.41,2.83,27.74,17.68,27.31,34.73Z"/>
      <path class="cls-1" d="M393.28,474.99s0-9.9-14.69-14.84c4.9,9.9,4.9,14.84,4.9,14.84h-42.43c-4.23-.9-9.36-7.64-9.75-11.8l-1.67-172.92-71.39,71.53c-.04-20.89-8.47-42.26-24.04-54.98-18.35-15-40.96-15.97-63.7-13.16l101.23-107.52c-30.01,62.63,47.9,120.99,91.93,67.5,5.15-6.26,10.05-16.15,9.84-16.16,5.1.01,5.1,44.54,5.1,54.44v148.43c24.48,4.95,29.37,24.74,29.37,34.63h-14.69Z"/>
      <path class="cls-1" d="M456.93,474.99c.78-5.91-9.34-14.82-14.69-14.84,3.18,3.45,5.1,10.27,4.9,14.84h-24.48c-1.84-17.18-9.79-34.63-29.37-39.58v-123.7l24.56-24.84s-.17,148.13,0,148.14c43.98.4,48.88,25.14,48.88,39.98h-9.79Z"/>
    </g>
  </g>
  <g id="Layer_4" data-name="Layer 4">
    <g>
      <path class="cls-1" d="M13.09,568.38c-2.42,0-4.62-.59-6.59-1.77-1.97-1.18-3.54-2.76-4.73-4.73-1.18-1.97-1.77-4.17-1.77-6.59v-39.26c0-2.42.59-4.62,1.77-6.59,1.18-1.97,2.76-3.54,4.73-4.73,1.97-1.18,4.16-1.77,6.59-1.77h52.17v13.18H16.18c-.97,0-1.73.26-2.27.77-.55.52-.82,1.29-.82,2.32v32.9c0,.97.27,1.73.82,2.27.55.54,1.3.82,2.27.82h49.08v13.18H13.09Z"/>
      <path class="cls-1" d="M74.8,568.38v-65.44h13.09v26.09h40.63v-26.09h13.09v65.44h-13.09v-26.08h-40.63v26.08h-13.09Z"/>
      <path class="cls-1" d="M150.23,568.38v-65.44h13v65.44h-13Z"/>
      <path class="cls-1" d="M171.5,568.38v-65.44h13.91l22.9,27.36,22.81-27.36h14v65.44h-13.18v-45.9l-23.63,28.27-23.72-28.17v45.81h-13.09Z"/>
      <path class="cls-1" d="M256.02,568.38v-65.44h60.35v13.18h-47.08v12.91h37.9v13.27h-37.9v12.91h47.08v13.18h-60.35Z"/>
      <path class="cls-1" d="M325.46,568.38v-65.35h52.26c2.36,0,4.54.59,6.54,1.77,2,1.18,3.6,2.77,4.82,4.77,1.21,2,1.82,4.18,1.82,6.54v17.27c0,2.36-.61,4.53-1.82,6.5-1.21,1.97-2.82,3.54-4.82,4.73-2,1.18-4.18,1.77-6.54,1.77l-39.17.09v21.9h-13.09ZM339.09,533.21h37.99c.12,0,.24-.05.36-.14.12-.09.18-.2.18-.32v-16.09c0-.12-.06-.24-.18-.36-.12-.12-.24-.18-.36-.18h-37.99c-.12,0-.24.06-.36.18-.12.12-.18.24-.18.36v16.09c0,.12.06.23.18.32.12.09.24.14.36.14ZM376.9,568.38l-19.36-23.08h17.18l16,18.99v4.09h-13.81Z"/>
      <path class="cls-1" d="M400.62,516.03c0-2.36.59-4.54,1.77-6.54,1.18-2,2.77-3.59,4.77-4.77,2-1.18,4.18-1.77,6.54-1.77h39.17c2.36,0,4.54.59,6.54,1.77,2,1.18,3.6,2.77,4.82,4.77,1.21,2,1.82,4.18,1.82,6.54v52.35h-13.27v-21.54h-39.08v21.54h-13.09v-52.35ZM452.79,533.75v-17.09c0-.12-.06-.24-.18-.36-.12-.12-.24-.18-.36-.18h-37.99c-.12,0-.24.06-.36.18s-.18.24-.18.36v17.09h39.08Z"/>
    </g>
  </g>
</svg>