<?xml version="1.0" encoding="UTF-8"?>
<svg xmlns="http://www.w3.org/2000/svg" version="1.1" viewBox="0 0 468.6 605.2">
  <defs>
    <style>
      .cls-1 {
        fill: #fff;
      }
    </style>
  </defs>
  <!-- Generator: Adobe Illustrator 28.6.0, SVG Export Plug-In . SVG Version: 1.2.0 Build 709)  -->
  <g>
    <g id="Layer_2">
      <g>
        <path class="cls-1" d="M449,82.4s32.9-64.6-35.6-59.9c-8.3,9.5-11,21.6-28.8,21.5-24.2.6-30.1-23.9-30.1-23.9l56.7.2s0-18.3-17.2-18.3h-85.6s-40.2,1.1-47.3-1.8c-7.1-3,10.6,23.9,23.6,23.9s25.4-2.4,30.1-1.5,0,14.8-17.4,14.5c-23.9,15.6-40.9,118,5,160.3,5.1-9.1,19.1-18,24.7-19.5-40.8-37.8-30.3-118-20.3-124.8,8.6-4.1,9.7,1.5,9.7,1.5,0,0-21.6,88.4,31.9,120.9,0,0,14.9.2,27.6,10.5,12.7,10.3,22.1,28,22.1,28,0,0,11.8-4.1,19,25.5,1,4.1,3.9-21.7-15.2-47.9-14.6-21.6-23.5-16.3-47-49.2-19.9-34.9-23-32.7-19.2-75.9,5.6-12.1,13.6-3,13.6.9s-8.6,50.2,32.8,86.2c41.4,36,55.2,79.5,48.4,126.7,0,0,24.5-30.1,23.6-60.3-.9-30.1-12.1-56.4-39.6-78-27.5-21.6-40.2-38.1-40.8-60.3s6.8-30.4,36-31.6c29.2-1.2,36.3,14.6,39,32.3Z"/>
        <path class="cls-1" d="M344.9,189.9c-20.1,0-36.3,16.3-36.3,36.3s16.3,36.3,36.3,36.3,36.3-16.3,36.3-36.3-16.3-36.3-36.3-36.3ZM344.9,245.8c-10.8,0-19.6-8.8-19.6-19.6s8.8-19.6,19.6-19.6,19.6,8.8,19.6,19.6-8.8,19.6-19.6,19.6Z"/>
        <path class="cls-1" d="M387.3,81.5l41.6-2.7s1.8-15.7-20.8-14c-25.4,1.3-20.8,16.6-20.8,16.6Z"/>
        <path class="cls-1" d="M448.9,501.1s7.2-23.9-34.9-24.1c0,0,32.1,8.4,24.5,24.1-28.2-.1-61.9,1.2-71.7-6.8-14.6-12-16.4-31.6-13.3-38.2,3.1-6.6,4.4-4.8,7.5-13.6,3.1-8.9.9-19.5.9-19.5,0,0-4.4-2.7-12.4,10.6s-22.2,18.2-27.5,16.4c0,0-1.9-11.5,3.3-17.7,5.1-6.2,13.3-12.7,19.6-20.1s11.9-15.3,13.8-19.3,0-17.3,0-17.3c0,0-9.7,5.3-15.9,16.4s-23,17.7-31,15.9c0,0-2.7-11,2.7-21.6,8.6-9.8,23.3-19,27.4-23.9,4.1-4.9,13.8-11.6,11.1-31.6,0-6.6-20.9,21.3-27.7,26.1-6.8,4.9-13.9,10.6-24.5,8.4,0-7.9.4-14.1,5.3-19.9,4.9-5.8,18.2-18.7,23.5-24.9,0,0,25.7-22.6,12.8-38.5,0,0-46.8,65.8-68.9,84,0,0-2.6-68.6-68-63.4-51.4,4.1-86.5,59.4-88.8,98.8-2.9,47.6,23.9,73.4,49.9,77.2,19.3,2.8,38.8-3.2,46.3-7.7s9.5-8.2,36.7-8.2,21.7.1,40.3,0c29.4,1,40.7,27.4,35.4,38.2h-18.2c1.5-26.1-34-22.7-34-22.7,0,0,27.8,6.1,22.6,22.7h-120.3s-48.6,1-68.1-41.8c-18.5-40.6-11.2-77.8,6.9-110.2,38.5-68.8,163.4-159.3,163.4-159.3l17.1,27s-8.7,47.3,39.6,58.7c40.8,9.6,57.7-28.3,57.7-28.3v216.6s25.6-1.2,43.9,0c37.8,3.5,32.5,34.3,32.5,37.2"/>
        <ellipse class="cls-1" cx="195.1" cy="390.9" rx="80.6" ry="62.6" transform="translate(-241 364.4) rotate(-60)"/>
        <path class="cls-1" d="M121.8,499.3s-25.3-11.9-28.5-26.6c0,0-32.9,1.2-54.2-15.4-16.8-13.1-18.4-30.8-18.4-64.4s1-112.7,1-112.7c0,0-7.4-47.3,36-49.1,43.4-1.8,47,58.5,13.3,65l4,20.3s36-12.5,39-42.1c3-29.6-5.7-64.4-57.7-64.4S.7,258.8.7,273.5c0,31.3,0,121.9,0,121.9,0,0-4.3,63.1,27.9,82.9,31.4,19.4,93.2,21,93.2,21Z"/>
        <path class="cls-1" d="M64.8,318.4l-3.7-21.8h-13l-4.5,22.8s.4,32.3,10.1,50.6c0,0,11.1-11.4,11.1-51.6Z"/>
        <circle class="cls-1" cx="56.4" cy="266.2" r="15.9"/>
        <path class="cls-1" d="M206.7,232.1l31.4-27.8-101.4-1s6.5,28.8,34.3,28.8h35.8Z"/>
        <path class="cls-1" d="M251.3,189.9l15.9-14.9s-25.4-17.7-30.1-45.5c-4.7-27.8,5.9-36-5.3-84.5C220.5-3.4,154.1,3.2,154.1,5.1c0,8.3,31.3-.5,55.1,57.2,11.5,27.9-.4,60,10.2,86.6,10.6,26.6,31.9,41,31.9,41Z"/>
        <path class="cls-1" d="M229.1,189.2s-18.5-10.7-23.9-33.7c-65.6.6-104.6,0-104.6,0,0,0-1.2,26,31.9,30.7,33.1,4.7,96.6,3,96.6,3Z"/>
        <path class="cls-1" d="M202.5,140.1s-7.3-15.6-5.3-31.3c-94.1.5-127.7,0-127.7,0,0,0,1.5,31.3,24.9,31.3h108.1Z"/>
        <path class="cls-1" d="M200.5,92.3s-1.2-25.2-6.5-29.5H35s5.2,29.5,31.6,29.5h133.8Z"/>
        <path class="cls-1" d="M183.3,48s-15.4-32.5-50.8-32.5H1.4s4.1,32.5,33.7,32.5h148.3Z"/>
        <polygon class="cls-1" points="399.2 449.1 418.6 449.1 418.6 313.8 399.2 331.7 399.2 449.1"/>
        <path class="cls-1" d="M400.3,312.3v-76.2s3.1,11.3,12.7,16.6c10.6,5.9,5.6,43.8,5.6,43.8l-18.3,15.8Z"/>
      </g>
    </g>
    <g id="Layer_4">
      <g>
        <path class="cls-1" d="M13.1,605.2c-2.4,0-4.6-.6-6.6-1.8-2-1.2-3.5-2.8-4.7-4.7-1.2-2-1.8-4.2-1.8-6.6v-39.3c0-2.4.6-4.6,1.8-6.6,1.2-2,2.8-3.5,4.7-4.7,2-1.2,4.2-1.8,6.6-1.8h52.2v13.2H16.2c-1,0-1.7.3-2.3.8-.5.5-.8,1.3-.8,2.3v32.9c0,1,.3,1.7.8,2.3.5.5,1.3.8,2.3.8h49.1v13.2H13.1Z"/>
        <path class="cls-1" d="M74.8,605.2v-65.4h13.1v26.1h40.6v-26.1h13.1v65.4h-13.1v-26.1h-40.6v26.1h-13.1Z"/>
        <path class="cls-1" d="M150.2,605.2v-65.4h13v65.4h-13Z"/>
        <path class="cls-1" d="M171.5,605.2v-65.4h13.9l22.9,27.4,22.8-27.4h14v65.4h-13.2v-45.9l-23.6,28.3-23.7-28.2v45.8h-13.1Z"/>
        <path class="cls-1" d="M256,605.2v-65.4h60.3v13.2h-47.1v12.9h37.9v13.3h-37.9v12.9h47.1v13.2h-60.3Z"/>
        <path class="cls-1" d="M325.5,605.2v-65.3h52.3c2.4,0,4.5.6,6.5,1.8,2,1.2,3.6,2.8,4.8,4.8,1.2,2,1.8,4.2,1.8,6.5v17.3c0,2.4-.6,4.5-1.8,6.5-1.2,2-2.8,3.5-4.8,4.7-2,1.2-4.2,1.8-6.5,1.8h-39.2v22h-13.1ZM339.1,570h38c.1,0,.2,0,.4-.1.1,0,.2-.2.2-.3v-16.1c0-.1,0-.2-.2-.4-.1-.1-.2-.2-.4-.2h-38c-.1,0-.2,0-.4.2-.1.1-.2.2-.2.4v16.1c0,.1,0,.2.2.3.1,0,.2.1.4.1ZM376.9,605.2l-19.4-23.1h17.2l16,19v4.1h-13.8Z"/>
        <path class="cls-1" d="M400.6,552.8c0-2.4.6-4.5,1.8-6.5,1.2-2,2.8-3.6,4.8-4.8,2-1.2,4.2-1.8,6.5-1.8h39.2c2.4,0,4.5.6,6.5,1.8,2,1.2,3.6,2.8,4.8,4.8,1.2,2,1.8,4.2,1.8,6.5v52.4h-13.3v-21.5h-39.1v21.5h-13.1v-52.4ZM452.8,570.5v-17.1c0-.1,0-.2-.2-.4-.1-.1-.2-.2-.4-.2h-38c-.1,0-.2,0-.4.2s-.2.2-.2.4v17.1h39.1Z"/>
      </g>
    </g>
  </g>
</svg>