<?xml version="1.0" encoding="UTF-8"?>
<svg id="Layer_2" data-name="Layer 2" xmlns="http://www.w3.org/2000/svg" viewBox="0 0 635.25 648.01">
  <defs>
    <style>
      .cls-1 {
        fill: #fff;
      }
    </style>
  </defs>
  <g id="Layer_2-2" data-name="Layer 2">
    <g>
      <path class="cls-1" d="M497.67,123.21c-6.85-39.52,30.55-35.46,55.11-35.46s35.72,6.75,35.72,20.25c0,0,26.72-47.25-10-70.18-13.35-8.34-42.69-4.07-42.69-4.07,0,0-7.42,21-33.62,20.25-39.84-1.14-47.27-27-47.27-27l73.32.58c.68-10.96-1.61-20.8-11.58-24.61-2.44-.93-9.76-2.96-11.98-2.96h-184.86c.45,9.52,14.88,27,28.24,27h40.07c-16.89,21.63-27.43,45.63-34.14,72.99-12.3,50.19-3.77,99.57,21.06,143.58,8.43-11.08,19.57-21.69,32.63-25.74-4.25-8.54-9.97-16.34-13.8-25.4-17.54-41.56-15.27-103.13,19.01-134.53-17.13,41.72-18.74,88.89,3.99,128.61,3.23,5.64,11.83,18.97,18,22.73,0,0,10.62,2.54,14.02,3.18,35.6,6.74,61,34.74,64.9,72.98.4,3.94,1.71,12.63,1.71,12.63,0,0,6.97,13.81,9.19,18.13,12.41,24.06,11.28,49.02,9.89,76.31,61.64-45.91,74.24-140.9,24.9-200.39-14.8-17.84-58.19-47.93-61.82-68.88ZM552.08,336.41l-3.09-19.6s-7.89-36.98-19.15-60.78c-28.17-59.53-97.27-71.78-99.53-137.01-.54-15.55,4.5-34.62,13.03-47.33l-2.63,23.39c1.51,29.14,21.07,46.02,39.6,66.27,26.08,28.5,58.5,52.92,74.07,91.09,11.1,27.21-2.29,83.97-2.29,83.97Z"/>
      <ellipse class="cls-1" cx="436.95" cy="293.86" rx="52.44" ry="55.4"/>
      <path class="cls-1" d="M200.56,27.01c37.65,4.3,62.47,20.77,80.04,58.26,16.36,34.91,12.91,88.48,60.76,164.48l-53.43,54h-93.51c-28.25-2.06-49.94-11.55-60.11-39.15h153.62s-3.71-33.6-16.94-35.76c-6.81,2.16-143.17.07-143.17.07-24.35-2.29-35.97-17.73-40.27-42.16h180.34s-.74-23.25-13.92-31c-.18.25-165.81-.37-165.81-.37-24.29-2.25-42.92-17.14-47.25-41.68l196.38.45s-2.28-25.14-22.83-33.15c-12.84,1.26-151.17.04-153.19.1-21.95.65-36.92-13.2-48.2-27.33C6.13,45.06.04,38.5,0,27l200.56.02Z"/>
      <path class="cls-1" d="M120.96,648.01s-66.79,0-93.51-27C.73,594,.73,540,.73,540v-166.05c5.12-58.27,66.48-94.55,113.17-60.12,45.85,33.81,31.62,105.88-19.66,127.62v40.5l-13.36,33.75-13.36-33.75v-67.5c32.93,3.59,54.71-37.89,32.68-65-22.5-27.68-64.03-10.01-66.07,24.5v166.05c0,33.75,13.36,74.25,60.11,74.25h20.42c6.68,13.5,19.14,27,32.5,33.75h-26.2Z"/>
      <path class="cls-1" d="M396.29,648.01h-26.72c.37-9.49-10.22-16.01-17.9-19.47,1.5,3.75,3.3,6.77,3.95,10.98.43,2.8.53,5.51.39,8.32-49.16.07-97.58.12-146.75.16-25.78.02-39.72-2.98-57.78-24.81-78.22-94.49,52.12-253.69,146.59-184.07,61.5,45.32,20.87,127.76-38.93,147.98l-31.83,12.17,131.71,1.34c21.03,3.86,37.85,24.12,37.26,47.38Z"/>
      <path class="cls-1" d="M535.06,648.01s0-13.5-20.04-20.25c6.68,13.5,6.68,20.25,6.68,20.25h-57.89c-5.77-1.23-12.76-10.43-13.3-16.1l-2.28-235.91-97.4,97.58c-.06-28.49-11.55-57.65-32.8-75-25.04-20.46-55.88-21.79-86.9-17.95l138.1-146.68c-40.94,85.45,65.35,165.06,125.41,92.09,7.02-8.53,13.7-22.03,13.42-22.05,6.96.02,6.96,60.77,6.96,74.27v202.5c33.4,6.75,40.07,33.75,40.07,47.25h-20.04Z"/>
      <path class="cls-1" d="M621.89,648.01c1.06-8.06-12.74-20.21-20.04-20.25,4.34,4.71,6.96,14.01,6.68,20.25h-33.4c-2.51-23.44-13.36-47.25-40.07-54v-168.75l33.5-33.89s-.23,202.09,0,202.1c60.01.55,66.69,34.3,66.69,54.55h-13.36Z"/>
    </g>
  </g>
</svg>